<svg xmlns="http://www.w3.org/2000/svg" width="256" height="256"><path fill-opacity=".016" d="M0 128.004v128.004l128.25-.254 128.25-.254.254-127.75L257.008 0H0v128.004m.485.496c0 70.4.119 99.053.265 63.672.146-35.38.146-92.98 0-128C.604 29.153.485 58.1.485 128.5" fill="#1976D2" fill-rule="evenodd"/><path fill-opacity=".059" d="M22 22.5V45l17.25.227c9.487.124 19.613.237 22.502.25l5.252.023-.002 22.75L67 91H22l.006 33.25c.006 36.244.909 46.206 5.44 60.024 8.736 26.639 26.86 47.809 51.554 60.217 17.799 8.943 33.254 12.104 54.886 11.227 27.074-1.098 48.01-10.013 67.533-28.756 37.239-35.75 43.279-92.664 14.358-135.286-11.979-17.654-32.441-33.221-52.89-40.236-15.761-5.407-17.969-5.643-57.637-6.149L68 44.815V0H22v22.5m46.017 101.681c.02 37.075.603 41.564 7.109 54.761 10.539 21.379 32.868 34.289 56.573 32.709 29.832-1.988 53.964-26.12 55.952-55.952 1.799-26.989-14.627-51.088-41.151-60.373l-8-2.801-35.25-.331L68 91.863l.017 32.318" fill="#1976D2" fill-rule="evenodd"/><path fill-opacity=".14" d="M23 22.5V45h45v16.853c0 9.27-.288 19.611-.64 22.982l-.641 6.127-22.109.269-22.11.269.017 35.5c.017 37.715.541 43.163 5.628 58.5 7.095 21.394 22.024 40.619 41.44 53.365 9.276 6.089 19.384 10.434 32.341 13.902 8.495 2.273 11.489 2.561 26.574 2.561 15.23 0 18.034-.276 26.929-2.651 24.079-6.432 46.145-21.907 59.7-41.867 13.741-20.234 20.684-47.348 18.052-70.493-5.462-48.033-41.056-85.335-89.041-93.311-4.098-.682-22.711-1.508-42-1.865L67.5 44.5l-.269-22.25L66.962 0H23v22.5m45 102.84c0 29.929.202 34.13 1.975 41.064 2.932 11.463 7.304 18.94 16.488 28.194 11.932 12.023 24.65 17.417 40.997 17.387 16.969-.031 30.475-5.689 42.655-17.87 29.509-29.509 21.636-77.755-15.615-95.683C141.796 92.318 139.191 92 101.79 92H68v33.34" fill="#1976D2" fill-rule="evenodd"/><path fill-opacity=".222" d="M23 22.5V45h44V0H23v22.5m44.769 46.25L67.5 91.5l-22.134-.387-22.134-.386-.737 23.586c-1.744 55.832 4.422 80.847 26.226 106.39 28.588 33.49 82.904 44.532 124.136 25.237 28.999-13.57 50.775-40.255 57.483-70.44 4.234-19.053 4.123-33.55-.392-51.205-8.594-33.602-35.811-62.215-69.277-72.829C145.559 46.673 138.324 46 101.888 46h-33.85l-.269 22.75m-.107 31.913c-.982 14.831-.755 49.908.375 57.837 3.506 24.608 18.683 43.293 41.501 51.094 10.015 3.423 24.458 3.857 33.962 1.018 20.676-6.174 37.025-22.532 43.088-43.112 2.802-9.509 2.371-23.978-1.013-34-6.518-19.303-20.721-32.993-41.075-39.593-6.603-2.141-8.961-2.292-41.593-2.675l-34.594-.406-.651 9.837" fill="#1976D2" fill-rule="evenodd"/></svg>